<svg xmlns="http://www.w3.org/2000/svg" version="1.1" xmlns:xlink="http://www.w3.org/1999/xlink" xmlns:svgjs="http://svgjs.com/svgjs" width="112" height="137"><svg version="1.1" id="SvgjsSvg1000" xmlns="http://www.w3.org/2000/svg" xmlns:xlink="http://www.w3.org/1999/xlink" x="0px" y="0px" viewBox="0 0 112 137" style="enable-background:new 0 0 112 137;" xml:space="preserve">
<style type="text/css">
	.st0{fill:#2EB67D;}
	.st1{fill:#ECB22E;}
	.st2{fill:#36C5F0;}
	.st3{fill:#E01E5A;}
</style>
<path class="st0" d="M105.98,39.13c0.02-7.03,7.83-24.27,4.05-30.89c-3.38-5.92-7.57-6.88-20.02-6.88H26.38
	c-6.88,0-12.45,5.58-12.45,12.49c0,6.91,5.56,12.49,12.45,12.49l58.1-0.12C101,26.22,101.74,32.56,105.98,39.13z"></path>
<path class="st1" d="M105.98,103.47c0.02-7.03,7.83-24.27,4.05-30.89c-3.38-5.92-7.57-6.88-20.02-6.88H26.38
	c-6.88,0-12.45,5.58-12.45,12.49c0,6.91,5.56,12.49,12.45,12.49l58.1-0.12C101,90.56,101.74,96.89,105.98,103.47z"></path>
<path class="st2" d="M6.02,71.3C6,64.27-1.82,47.03,1.97,40.41c3.38-5.92,7.57-6.88,20.02-6.88h63.63c6.88,0,12.45,5.58,12.45,12.49
	c0,6.91-5.56,12.49-12.45,12.49l-58.1-0.12C11,58.39,10.26,64.72,6.02,71.3z"></path>
<path class="st3" d="M6.02,135.64c-0.02-7.03-7.83-24.27-4.05-30.89c3.38-5.92,7.57-6.88,20.02-6.88h63.63
	c6.88,0,12.45,5.58,12.45,12.49c0,6.91-5.56,12.49-12.45,12.49l-58.1-0.12C11,122.72,10.26,129.06,6.02,135.64z"></path>
</svg><style>@media (prefers-color-scheme: light) { :root { filter: none; } }
</style></svg>