<?xml version="1.0" encoding="utf-8"?>
<!-- Generator: Adobe Illustrator 27.4.0, SVG Export Plug-In . SVG Version: 6.00 Build 0)  -->
<svg version="1.1" id="Layer_1" xmlns="http://www.w3.org/2000/svg" xmlns:xlink="http://www.w3.org/1999/xlink" x="0px" y="0px"
	 viewBox="0 0 567.5 141.5" style="enable-background:new 0 0 567.5 141.5;" xml:space="preserve">
<style type="text/css">
	.st0{fill:#2EB67D;}
	.st1{fill:#ECB22E;}
	.st2{fill:#36C5F0;}
	.st3{fill:#E01E5A;}
</style>
<path d="M145.1,102.1l6.2-14.4c6.7,5,15.6,7.6,24.4,7.6c6.5,0,10.6-2.5,10.6-6.3c-0.1-10.6-38.9-2.3-39.2-28.9
	C147,46.6,159,36.2,176,36.2c10.1,0,20.2,2.5,27.4,8.2l-5.8,14.7c-6.6-4.2-14.8-7.2-22.6-7.2c-5.3,0-8.8,2.5-8.8,5.7
	c0.1,10.4,39.2,4.7,39.6,30.1c0,13.8-11.7,22.42-28.5,22.42C165,110.12,153.7,108.3,145.1,102.1"/>
<g>
	<path d="M468,82.5c-3.1,5.4-8.9,9.1-15.6,9.1c-9.9,0-17.9-8-17.9-17.9s8-17.9,17.9-17.9c6.7,0,12.5,3.7,15.6,9.1l17.1-9.5
		c-6.4-11.4-18.7-19.2-32.7-19.2c-20.7,0-37.5,16.8-37.5,37.5s16.8,36.42,37.5,36.42c14.1,0,26.3-6.62,32.7-18.12L468,82.5z"/>
</g>
<g>
	<polygon points="490.5,5.1 490.5,110.12 511.9,110.12 511.9,78.4 537.3,110.12 564.7,110.12 532.4,72.5 562.3,37.7 536.1,37.7 
		511.9,66.6 511.9,5.1 	"/>
</g>
<g>
	<path d="M387.4,82.7c-3.1,5.1-9.5,8.9-16.7,8.9c-9.9,0-17.9-8-17.9-17.9s8-17.9,17.9-17.9c7.2,0,13.6,4,16.7,9.2V82.7z M387.4,37.7
		v8.5c-3.5-5.9-12.2-10-21.3-10c-18.8,0-33.6,16.6-33.6,37.4s14.8,36.52,33.6,36.52c9.1,0,17.8-3.02,21.3-8.92v8.92h21.4V37.7
		L387.4,37.7z"/>
</g>
<g>
	<g>
		<path d="M210.98,37.11h19.82v11.19c7.09-8.69,13.53-13.04,23.33-13.04c5.2,0,9.72,1.08,13.54,3.24s6.96,5.43,9.41,9.8
			c3.57-4.37,7.42-7.64,11.55-9.8c4.13-2.16,6.54-3.24,11.24-3.24c5.97,0,11.02,1.22,15.15,3.66c4.13,2.44,7.22,6.03,9.26,10.76
			c1.48,3.5,2.22,9.15,2.22,16.97v43.46H305V72.21c0-8.12-0.74-13.37-2.22-15.74c-1.99-3.09-5.05-4.63-9.18-4.63
			c-3.01,0-3.84,0.93-6.49,2.78c-2.65,1.85-4.57,5.56-5.74,9.14c-1.17,3.57-1.76,8.22-1.76,15.93v30.43h-21.5V74.13
			c0-7.97-0.38-13.11-1.15-15.43c-0.76-2.31-1.95-4.04-3.56-5.17c-1.61-1.13-3.79-1.7-6.54-1.7c-3.32,0-4.3,0.9-6.95,2.7
			c-2.65,1.8-4.55,5.4-5.7,8.79c-1.15,3.39-1.72,8.02-1.72,15.89v30.89h-21.5V37.11z"/>
	</g>
</g>
<path class="st0" d="M106.24,43c0.02-7.03,7.83-24.27,4.05-30.89c-3.38-5.92-7.57-6.88-20.02-6.88H26.64
	c-6.88,0-12.45,5.58-12.45,12.49c0,6.91,5.56,12.49,12.45,12.49l58.1-0.12C101.26,30.08,102,36.42,106.24,43z"/>
<path class="st1" d="M106.24,107.33c0.02-7.03,7.83-24.27,4.05-30.89c-3.38-5.92-7.57-6.88-20.02-6.88H26.64
	c-6.88,0-12.45,5.58-12.45,12.49c0,6.91,5.56,12.49,12.45,12.49l58.1-0.12C101.26,94.42,102,100.76,106.24,107.33z"/>
<path class="st2" d="M6.27,75.16C6.25,68.13-1.56,50.9,2.22,44.28c3.38-5.92,7.57-6.88,20.02-6.88h63.63
	c6.88,0,12.45,5.58,12.45,12.49c0,6.91-5.56,12.49-12.45,12.49l-58.1-0.12C11.25,62.25,10.51,68.59,6.27,75.16z"/>
<path class="st3" d="M6.27,139.5c-0.02-7.03-7.83-24.27-4.05-30.89c3.38-5.92,7.57-6.88,20.02-6.88h63.63
	c6.88,0,12.45,5.58,12.45,12.49c0,6.91-5.56,12.49-12.45,12.49l-58.1-0.12C11.25,126.59,10.51,132.92,6.27,139.5z"/>
</svg>
